<?xml version="1.0" encoding="UTF-8" standalone="no"?><!DOCTYPE svg PUBLIC "-//W3C//DTD SVG 1.1//EN" "http://www.w3.org/Graphics/SVG/1.1/DTD/svg11.dtd"><svg width="100%" height="100%" viewBox="0 0 2913 376" version="1.1" xmlns="http://www.w3.org/2000/svg" xmlns:xlink="http://www.w3.org/1999/xlink" xml:space="preserve" xmlns:serif="http://www.serif.com/" style="fill-rule:evenodd;clip-rule:evenodd;stroke-linejoin:round;stroke-miterlimit:2;"><g id="Warstwa-1" serif:id="Warstwa 1"><path id="text1" d="M279.748,169.29c0.8,3.202 2.268,5.736 4.402,7.604c2.134,1.868 4.269,3.335 6.403,4.402c2.134,0.8 4.002,1.334 5.603,1.601l2.401,0c-2.668,0.8 -5.203,1.868 -7.604,3.202c-2.134,1.334 -4.136,2.935 -6.003,4.803c-1.601,1.868 -2.668,4.402 -3.202,7.604c0,5.069 -0.133,10.005 -0.4,14.808c-0.267,4.803 -0.534,9.071 -0.8,12.807c-0.267,4.536 -0.534,8.671 -0.8,12.407c0,0 -0.267,0.267 -0.8,0.801c-1.601,3.469 -5.603,8.271 -12.006,14.408c-6.137,5.87 -12.006,12.14 -17.609,18.81c-7.737,9.338 -13.874,17.076 -18.41,23.212c-4.536,6.137 -8.138,11.072 -10.806,14.808c-2.935,4.269 -5.203,7.604 -6.804,10.005l-34.418,54.429c1.868,-5.87 2.935,-12.673 3.202,-20.411c0.267,-7.471 -1.334,-14.674 -4.803,-21.611c-3.202,-7.204 -8.671,-13.474 -16.409,-18.81c-7.471,-5.603 -18.01,-9.071 -31.617,-10.406c-1.334,-0.267 -3.202,-0.4 -5.603,-0.4c-4.269,0.267 -8.271,1.601 -12.006,4.002c-3.202,2.134 -6.27,5.336 -9.205,9.605c-2.935,4.002 -4.803,9.872 -5.603,17.609l-4.002,4.402c-9.071,-14.674 -15.742,-22.012 -20.011,-22.012c-22.679,-10.939 -39.754,-20.544 -51.227,-28.815c-11.206,-8.271 -18.143,-16.008 -20.811,-23.212l-0.8,-3.202c10.939,13.074 28.949,19.61 54.029,19.61c17.343,0 28.415,-10.539 33.218,-31.617l0,-51.227c-0.534,-3.202 -1.734,-5.736 -3.602,-7.604c-1.601,-1.868 -3.468,-3.468 -5.603,-4.802c-2.401,-1.334 -4.936,-2.401 -7.604,-3.202c0,0 0.8,-0.133 2.401,-0.4c1.601,-0.267 3.335,-0.934 5.203,-2.001c2.134,-1.334 4.002,-3.068 5.603,-5.203c1.868,-2.401 3.068,-5.603 3.602,-9.605l0,-52.028c0,-7.204 -2.134,-14.541 -6.403,-22.012c-4.269,-7.737 -11.606,-15.742 -22.012,-24.013c-19.477,-25.347 -31.217,-46.158 -35.219,-62.433l0.8,0c9.872,10.406 18.943,18.143 27.214,23.212c8.538,5.069 15.875,8.671 22.012,10.806c10.939,3.735 20.011,6.137 27.214,7.204c7.471,0.8 13.34,1.334 17.609,1.601l6.403,0c0.8,0 1.467,-0.133 2.001,-0.4c9.605,0 16.675,-2.268 21.211,-6.804c4.803,-4.803 8.138,-10.005 10.005,-15.608c2.134,-6.67 3.068,-14.274 2.801,-22.812l0.8,0l0.4,0.4c4.269,2.134 8.805,5.469 13.607,10.005c5.069,4.536 10.272,9.739 15.608,15.608c5.336,5.603 10.806,11.473 16.409,17.609c5.603,6.137 11.073,11.873 16.409,17.209c18.41,21.611 31.617,40.955 39.621,58.031c8.004,16.809 13.074,31.617 15.208,44.424c0,0.8 0.133,1.467 0.4,2.001c0,0.8 0.133,1.334 0.4,1.601l0,0Zm-156.883,-103.255c4.536,6.137 7.737,9.605 9.605,10.406c1.868,0.8 3.335,1.201 4.402,1.201c-2.935,2.401 -5.069,5.203 -6.403,8.404c-1.334,3.202 -2.268,6.403 -2.801,9.605c-0.267,3.202 -0.4,6.27 -0.4,9.205c0.267,2.668 0.4,4.803 0.4,6.403l0,30.816c0.267,5.336 0.4,10.672 0.4,16.008c0.267,12.807 0.534,26.814 0.8,42.022c0,15.208 0.4,27.481 1.201,36.82c0.8,9.338 4.269,16.142 10.406,20.411l0,1.601c-9.071,1.067 -14.408,4.402 -16.008,10.005c0,1.334 -0.133,2.401 -0.4,3.202c0,0.8 1.201,1.868 3.602,3.202c2.401,1.067 5.603,2.134 9.605,3.202c4.002,1.067 8.538,2.001 13.607,2.801c5.336,0.8 10.806,1.334 16.409,1.601l6.003,0c21.078,0 34.685,-16.009 40.822,-48.026l2.001,-24.413c0,-11.473 -0.133,-22.545 -0.4,-33.218c-0.267,-10.939 -1.467,-21.611 -3.602,-32.017c-2.134,-10.406 -5.603,-20.544 -10.405,-30.416c-4.803,-9.872 -11.74,-19.477 -20.811,-28.815c-4.536,-4.269 -10.005,-8.938 -16.409,-14.007c-6.137,-5.336 -12.14,-9.205 -18.01,-11.606c-5.336,-1.334 -9.205,-2.001 -11.606,-2.001l-1.201,0c-3.468,0.534 -6.003,1.067 -7.604,1.601c-1.334,0.8 -2.401,1.868 -3.202,3.202l-0,2.801Zm498.034,203.708c4.536,9.338 6.403,17.743 5.603,25.213c-0.534,7.471 -2.268,13.874 -5.203,19.21c-2.935,5.336 -6.27,9.605 -10.005,12.807c-3.735,3.202 -6.27,5.336 -7.604,6.403c-1.334,1.334 -2.935,3.735 -4.803,7.204c-1.601,3.735 -3.202,7.737 -4.803,12.006c-1.868,4.803 -3.735,10.139 -5.603,16.008c-3.468,-8.538 -8.138,-16.409 -14.007,-23.612c-5.069,-6.137 -11.74,-11.873 -20.011,-17.209c-8.271,-5.603 -18.543,-9.071 -30.816,-10.406c0,-0.267 0.934,-0.534 2.801,-0.801c2.134,-0.534 4.136,-1.468 6.003,-2.801c2.134,-1.601 3.735,-4.002 4.803,-7.204c1.334,-3.202 1.467,-7.737 0.4,-13.607c-0.267,-1.067 -1.334,-5.603 -3.202,-13.607c-1.601,-8.271 -4.402,-19.877 -8.404,-34.818c-4.002,-15.208 -9.472,-33.751 -16.409,-55.629c-6.937,-21.878 -15.875,-47.091 -26.814,-75.64l-27.214,82.043c5.603,-4.002 11.073,-6.403 16.409,-7.204c5.336,-1.067 10.406,-1.067 15.208,0c4.803,0.8 9.071,2.535 12.807,5.203c4.002,2.401 7.471,5.069 10.406,8.004c-8.271,-3.202 -16.008,-4.402 -23.212,-3.602c-6.937,0.8 -13.474,3.068 -19.61,6.804c-5.87,3.735 -11.206,8.671 -16.008,14.808c-4.536,6.137 -8.404,12.807 -11.606,20.011l-23.612,67.236c-1.334,5.603 -1.467,10.005 -0.4,13.207c1.334,3.202 2.935,5.603 4.803,7.204c2.134,1.601 4.136,2.668 6.003,3.202c2.134,0.534 3.202,0.934 3.202,1.201c0,0.534 -2.134,0.801 -6.403,0.801c-4.269,0 -10.939,1.201 -20.011,3.602c-8.805,2.401 -20.011,6.403 -33.618,12.006c-13.34,5.87 -29.215,14.674 -47.625,26.414c0,-0.8 2.001,-3.602 6.003,-8.404c4.269,-4.536 8.938,-10.005 14.007,-16.409c5.336,-6.137 10.272,-12.407 14.808,-18.81c4.803,-6.403 7.871,-11.74 9.205,-16.008c1.868,-3.202 3.735,-7.337 5.603,-12.407c2.134,-5.069 4.269,-10.539 6.403,-16.409c2.401,-6.137 4.669,-12.54 6.804,-19.21c2.134,-6.67 4.269,-13.207 6.403,-19.61c4.803,-14.941 9.738,-31.083 14.808,-48.426c0.267,-2.935 -0.133,-5.336 -1.201,-7.204c-0.8,-2.134 -1.868,-3.869 -3.202,-5.203c-1.334,-1.601 -3.068,-2.935 -5.203,-4.002c0,0 0.8,0.133 2.401,0.4c1.868,0 3.869,-0.4 6.003,-1.201c2.134,-0.8 4.402,-2.268 6.804,-4.402c2.668,-2.134 4.803,-5.47 6.403,-10.005l10.005,-26.014c2.935,-7.737 6.27,-16.542 10.005,-26.414c4.002,-9.872 8.004,-20.011 12.006,-30.416c9.338,-24.279 20.144,-51.894 32.417,-82.844l63.634,167.289c1.868,4.002 4.002,6.937 6.403,8.805c2.401,1.868 4.669,3.202 6.804,4.002c2.668,1.067 5.203,1.334 7.604,0.801c-2.134,1.067 -3.869,2.401 -5.203,4.002c-1.334,1.334 -2.535,3.068 -3.602,5.203c-0.8,1.868 -0.934,4.269 -0.4,7.204l16.409,48.826c1.868,6.403 3.869,12.94 6.003,19.61c2.134,6.403 4.269,12.14 6.403,17.209c2.401,4.803 4.936,8.671 7.604,11.606c2.668,2.668 5.736,3.602 9.205,2.801c5.87,-1.334 9.872,-3.869 12.006,-7.604c2.401,-3.735 3.735,-7.604 4.002,-11.606c0.267,-4.803 -0.4,-10.005 -2.001,-15.608c0.267,0.267 0.8,1.201 1.601,2.801c1.067,1.601 1.601,2.668 1.601,3.202l0,-0Zm119.433,52.828c0,3.735 0.934,8.404 2.801,14.007c2.134,5.87 4.402,11.473 6.804,16.809c2.401,5.603 4.536,10.405 6.403,14.408c2.134,4.269 3.202,6.804 3.202,7.604c-13.607,-13.607 -26.547,-23.879 -38.821,-30.816c-12.006,-6.937 -22.679,-11.873 -32.017,-14.808c-9.071,-2.935 -16.275,-4.536 -21.611,-4.803c-5.069,-0.267 -7.604,-0.534 -7.604,-0.801c0,-0.267 2.001,-0.667 6.003,-1.201c4.269,-0.534 8.805,-1.601 13.607,-3.202c5.069,-1.601 9.605,-4.002 13.607,-7.204c4.002,-3.469 6.003,-8.138 6.003,-14.007l0,-95.25c0,-3.735 -0.934,-6.804 -2.801,-9.205c-1.601,-2.668 -3.468,-4.669 -5.603,-6.003c-2.668,-1.601 -5.47,-2.668 -8.404,-3.202c2.935,-0.534 5.736,-1.601 8.404,-3.202c2.134,-1.334 4.002,-3.335 5.603,-6.003c1.868,-2.935 2.801,-6.937 2.801,-12.006l0,-161.685c3.469,7.204 7.471,13.474 12.006,18.81c4.536,5.336 9.338,10.005 14.408,14.007c5.069,4.002 10.272,7.337 15.608,10.005c5.336,2.668 10.539,4.936 15.608,6.804c12.006,4.269 24.413,6.804 37.22,7.604c-3.469,0 -8.271,0.667 -14.408,2.001c-5.87,1.334 -11.74,3.602 -17.609,6.804c-5.603,3.202 -10.539,7.471 -14.808,12.807c-4.269,5.069 -6.403,11.339 -6.403,18.81l0,64.834c0.267,4.269 1.334,7.604 3.202,10.005c1.868,2.401 3.735,4.269 5.603,5.603c1.868,1.067 3.602,1.734 5.203,2.001c1.601,0.267 2.401,0.4 2.401,0.4c0,0 -0.8,0.534 -2.401,1.601c-1.601,0.8 -3.335,2.001 -5.203,3.602c-1.868,1.601 -3.735,3.735 -5.603,6.403c-1.868,2.401 -2.935,5.336 -3.202,8.805l0,119.663Zm276.317,-43.223c13.074,0 24.146,-1.734 33.218,-5.203c9.071,-3.469 16.542,-7.604 22.412,-12.407c5.87,-4.803 10.405,-9.738 13.607,-14.808c3.202,-5.336 5.47,-9.605 6.804,-12.807c1.601,-3.469 2.535,-5.47 2.801,-6.003c0.267,-0.8 0.4,0.934 0.4,5.203c0,6.403 -0.267,12.407 -0.801,18.009c-0.267,5.336 -0.934,10.806 -2.001,16.409c-0.8,5.336 -2.001,11.206 -3.602,17.609c-1.334,6.137 -3.068,13.207 -5.203,21.211c-2.401,9.338 -5.336,17.476 -8.805,24.413c-3.469,6.937 -6.003,11.74 -7.604,14.408l-21.211,30.416c1.868,-6.137 2.801,-13.474 2.801,-22.012c0.267,-8.271 -1.201,-15.875 -4.402,-22.812l-0.4,-1.601c-1.868,-3.469 -4.536,-6.804 -8.004,-10.005c-3.469,-3.469 -9.205,-6.403 -17.209,-8.805c-8.004,-2.668 -19.077,-4.669 -33.218,-6.003c-13.874,-1.601 -32.15,-2.401 -54.829,-2.401c-4.269,0.267 -8.004,1.601 -11.206,4.002c-2.935,2.134 -5.736,5.336 -8.404,9.605c-2.668,4.002 -4.402,9.872 -5.203,17.609l-4.002,4.402c-8.271,-14.674 -14.541,-22.012 -18.81,-22.012c-20.811,-10.939 -36.686,-20.544 -47.625,-28.815c-10.672,-8.271 -17.076,-16.008 -19.21,-23.212l-1.201,-3.202c10.672,13.074 27.615,19.61 50.827,19.61c16.009,0 26.281,-10.539 30.816,-31.617l0,-51.227c-0.534,-3.202 -1.734,-5.736 -3.602,-7.604c-1.601,-2.134 -3.335,-3.735 -5.203,-4.802c-1.601,-1.067 -3.202,-1.868 -4.802,-2.401c-1.334,-0.534 -2.001,-0.801 -2.001,-0.801c0,0 0.667,-0.133 2.001,-0.4c1.601,-0.267 3.202,-0.934 4.802,-2.001c1.868,-1.334 3.602,-3.068 5.203,-5.203c1.868,-2.401 3.068,-5.603 3.602,-9.605l0,-54.029c0,-7.204 -2.001,-14.541 -6.003,-22.012c-4.002,-7.737 -10.806,-15.742 -20.411,-24.013c-18.143,-25.08 -29.216,-45.891 -33.218,-62.433l0.8,0c5.336,5.87 10.272,10.806 14.808,14.808c4.803,4.002 9.338,7.471 13.607,10.406c4.269,2.935 9.205,5.336 14.808,7.204c5.87,1.868 12.006,3.468 18.41,4.802c6.403,1.334 12.94,2.401 19.61,3.202c6.67,0.8 13.074,1.334 19.21,1.601l31.217,0c-5.87,3.202 -11.206,6.67 -16.008,10.406c-4.002,3.202 -7.737,7.07 -11.206,11.606c-3.202,4.536 -4.803,9.605 -4.803,15.208l1.201,83.244c0.267,4.002 1.201,7.204 2.801,9.605c1.868,2.134 3.602,3.869 5.203,5.203c1.868,1.067 3.602,1.734 5.203,2.001c1.601,0.267 2.401,0.4 2.401,0.4c-2.401,0.8 -4.669,1.734 -6.804,2.801c-1.868,1.067 -3.735,2.535 -5.603,4.402c-1.601,1.868 -2.668,4.269 -3.202,7.204l0.801,30.416c0.534,3.735 1.601,7.07 3.202,10.005c1.868,2.935 3.869,5.603 6.003,8.004c2.134,2.401 4.269,4.669 6.403,6.804c2.401,1.868 4.536,3.468 6.403,4.802l0,1.601c-9.605,1.601 -14.674,6.003 -15.208,13.207c0,1.868 2.268,3.335 6.804,4.402c4.803,1.067 10.672,2.001 17.609,2.801c6.937,0.534 14.408,0.934 22.412,1.201l22.812,0l0,0Zm247.501,-78.442c0,0 -0.133,1.334 -0.4,4.002c0,2.668 -0.133,6.137 -0.4,10.406c0,4.002 -0.133,8.671 -0.4,14.007l0,16.409c-0.267,13.074 -0.534,27.881 -0.801,44.424l16.409,84.445c-1.868,-3.735 -4.536,-7.871 -8.004,-12.407c-3.202,-4.536 -6.937,-9.338 -11.206,-14.408c-4.002,-4.803 -8.404,-9.605 -13.207,-14.408c-4.536,-4.803 -9.071,-9.205 -13.607,-13.207c-4.803,-4.269 -10.539,-8.004 -17.209,-11.206c-6.67,-3.469 -13.34,-6.537 -20.011,-9.205c-6.67,-2.935 -12.673,-5.87 -18.009,-8.805c-5.336,-2.935 -8.938,-6.403 -10.806,-10.406c-1.067,-2.134 -1.734,-3.735 -2.001,-4.803c-0.267,-1.067 -0.534,-2.001 -0.801,-2.801c2.401,3.202 5.069,5.603 8.004,7.204c3.202,1.334 6.27,2.268 9.205,2.802c2.935,0.267 5.603,0.267 8.004,0c2.668,-0.267 4.536,-0.4 5.603,-0.4c7.471,-0.534 13.474,-3.202 18.01,-8.004c4.803,-5.069 8.271,-12.807 10.406,-23.212l-0.4,-51.227c0,-2.935 -0.667,-5.336 -2.001,-7.204c-1.067,-1.868 -2.668,-3.469 -4.802,-4.803c-1.334,-0.534 -2.668,-1.067 -4.002,-1.601c-1.067,-0.534 -2.268,-1.067 -3.602,-1.601c-1.334,-0.534 -2.668,-0.934 -4.002,-1.201c-1.334,-0.534 -2.668,-1.067 -4.002,-1.601c3.202,-0.8 6.003,-1.734 8.404,-2.801c2.134,-1.067 3.735,-2.401 4.803,-4.002c1.334,-1.868 1.467,-4.269 0.4,-7.204l-85.645,-167.289c14.674,12.006 28.415,20.678 41.222,26.014c12.807,5.069 23.879,8.271 33.218,9.605c10.939,1.601 20.944,1.467 30.016,-0.4c-3.202,1.601 -6.937,3.735 -11.206,6.403c-4.269,2.668 -8.004,6.003 -11.206,10.005c-2.935,4.002 -4.669,8.938 -5.203,14.808c-0.534,5.87 1.601,12.807 6.403,20.811c0.267,0.8 1.468,3.335 3.602,7.604c2.134,4.269 4.669,9.472 7.604,15.608c3.202,5.87 6.67,12.273 10.406,19.21c4.002,6.67 7.871,13.074 11.606,19.21c3.735,-6.137 7.471,-12.54 11.206,-19.21c4.002,-6.937 7.471,-13.34 10.406,-19.21c3.202,-6.137 5.736,-11.339 7.604,-15.608c2.134,-4.269 3.469,-6.804 4.002,-7.604c4.803,-8.004 6.937,-14.941 6.403,-20.811c-0.267,-5.87 -2.001,-10.806 -5.203,-14.808c-2.935,-4.002 -6.67,-7.337 -11.206,-10.005c-4.269,-2.668 -7.871,-4.802 -10.806,-6.403c10.139,1.868 21.211,2.001 33.218,0.4c10.139,-1.334 21.878,-4.536 35.219,-9.605c13.607,-5.336 27.881,-14.007 42.823,-26.014l-92.449,166.888c-1.334,2.935 -1.468,5.336 -0.4,7.204c1.334,1.868 3.068,3.335 5.203,4.402c2.401,1.334 5.336,2.268 8.805,2.801c-2.134,0.267 -4.269,0.801 -6.403,1.601c-4.002,1.334 -8.004,2.801 -12.006,4.402c-4.536,2.401 -6.804,6.67 -6.804,12.807l0.001,0Zm380.772,-4.802c0.534,0.534 1.067,1.334 1.601,2.401c3.202,6.137 5.336,12.807 6.403,20.011c1.067,7.204 0.934,14.541 -0.4,22.012c-1.334,7.471 -3.869,14.808 -7.604,22.012c-3.735,7.204 -8.805,13.607 -15.208,19.21c-7.471,5.603 -12.807,9.872 -16.008,12.807c-2.935,2.935 -5.203,5.736 -6.804,8.404c-1.601,2.401 -3.202,5.203 -4.802,8.404c-1.334,3.202 -4.269,7.871 -8.805,14.007l-40.421,48.826c2.401,-8.271 1.734,-16.275 -2.001,-24.013c-3.469,-7.471 -8.938,-14.408 -16.409,-20.811c-7.471,-6.403 -16.275,-12.14 -26.414,-17.209c-10.139,-5.069 -20.544,-9.071 -31.216,-12.006c-10.406,-3.202 -20.544,-5.203 -30.416,-6.003c-9.605,-1.067 -17.609,-0.667 -24.013,1.201l-13.607,3.202c13.34,-12.54 20.411,-21.478 21.211,-26.814c1.067,-20.011 3.469,-35.619 7.204,-46.825c3.735,-11.473 9.338,-19.61 16.809,-24.413l3.202,-2.001c-9.605,12.807 -7.604,27.881 6.003,45.224c2.401,2.935 4.803,5.603 7.204,8.004c2.401,2.134 5.203,3.869 8.404,5.203c3.469,1.334 7.471,2.001 12.006,2.001c4.803,0 10.672,-0.667 17.609,-2.001c-2.401,1.868 -4.669,3.602 -6.804,5.203c-1.868,1.601 -3.602,3.335 -5.203,5.203c-1.334,1.601 -2.001,3.202 -2.001,4.802c-0.267,2.668 1.601,4.536 5.603,5.603c4.002,1.067 8.404,1.734 13.207,2.001c5.603,0.534 12.006,0.534 19.21,0c8.271,0 16.142,-1.334 23.612,-4.002c7.471,-2.668 13.874,-6.403 19.21,-11.206c5.603,-4.803 10.005,-10.672 13.207,-17.609c3.202,-6.937 4.802,-14.808 4.802,-23.612c0,-5.336 -2.134,-10.272 -6.403,-14.808c-4.269,-4.803 -10.005,-9.472 -17.209,-14.007c-5.87,-2.935 -13.074,-5.203 -21.611,-6.804c-8.271,-1.601 -16.275,-2.668 -24.013,-3.202c-9.071,-0.8 -18.677,-1.201 -28.815,-1.201c0,0 1.734,-0.4 5.203,-1.201c3.735,-0.8 7.337,-2.001 10.806,-3.602c3.469,-1.601 5.736,-3.469 6.804,-5.603c1.334,-2.134 -0.267,-4.536 -4.803,-7.204c-9.605,-4.536 -18.943,-9.205 -28.015,-14.007c-9.071,-5.069 -17.209,-10.406 -24.413,-16.009c-7.204,-5.603 -12.94,-11.473 -17.209,-17.609c-4.269,-6.403 -6.403,-13.207 -6.403,-20.411c0,-4.269 0.133,-7.471 0.4,-9.605c0.267,-2.401 0,-4.402 -0.801,-6.003c-0.534,-1.601 -1.868,-3.202 -4.002,-4.803c-2.134,-1.868 -5.47,-4.402 -10.005,-7.604c-2.935,-2.134 -6.003,-5.203 -9.205,-9.205c-3.202,-4.269 -6.403,-8.671 -9.605,-13.207c-2.935,-4.803 -5.603,-9.472 -8.004,-14.007c-2.401,-4.803 -4.136,-8.805 -5.203,-12.006l0.801,0c4.269,4.002 8.138,7.471 11.606,10.406c3.469,2.668 6.67,4.936 9.605,6.804c2.935,1.601 5.736,2.935 8.404,4.002c2.668,1.067 5.469,1.734 8.404,2.001c12.54,1.601 23.479,2.268 32.817,2.001c9.338,-0.267 17.343,-1.201 24.013,-2.801c6.67,-1.601 12.14,-3.735 16.409,-6.403c4.269,-2.668 7.604,-5.469 10.005,-8.404c5.87,-6.937 8.271,-15.341 7.204,-25.213c9.338,4.803 18.276,9.472 26.814,14.007c7.204,3.735 14.408,7.737 21.611,12.006c7.471,4.269 13.474,7.871 18.01,10.806c7.471,5.336 13.874,10.672 19.21,16.008c5.336,5.069 9.738,9.739 13.207,14.007c4.002,4.803 7.337,9.472 10.005,14.007l-12.006,-5.203c-0.8,-0.267 -1.868,-0.4 -3.202,-0.4c-1.334,0 -2.801,0.4 -4.402,1.201c-1.601,0.8 -3.335,2.268 -5.203,4.402c-1.601,2.134 -3.068,5.203 -4.402,9.205c-1.067,2.401 -2.801,4.803 -5.203,7.204c-2.401,2.134 -5.069,4.135 -8.004,6.003c-3.202,2.134 -6.804,4.002 -10.806,5.603c1.868,-1.868 3.602,-4.136 5.203,-6.804c1.334,-2.134 2.535,-4.802 3.602,-8.004c1.067,-3.202 1.734,-6.804 2.001,-10.806c0,-2.935 -2.801,-7.204 -8.404,-12.807c-5.603,-5.603 -15.208,-12.14 -28.815,-19.61c-6.403,-3.469 -13.34,-5.203 -20.811,-5.203c-7.471,0 -14.408,0.8 -20.811,2.401c-7.471,1.868 -14.941,4.536 -22.412,8.004c-3.735,1.067 -6.804,2.801 -9.205,5.203c-2.401,2.134 -2.802,4.002 -1.201,5.603c1.601,2.668 3.735,4.402 6.403,5.203c2.668,0.8 4.536,1.201 5.603,1.201c-2.668,1.601 -4.669,4.669 -6.003,9.205c-1.067,4.536 0.267,9.872 4.002,16.008c4.002,6.137 11.339,12.94 22.012,20.411c10.939,7.471 27.214,15.075 48.826,22.812c4.002,1.601 8.671,3.335 14.007,5.203c5.603,1.868 11.206,3.869 16.809,6.003c5.87,1.868 11.473,3.869 16.809,6.003c5.603,2.134 10.272,4.269 14.007,6.403c6.67,4.002 12.807,7.07 18.41,9.205c5.603,1.868 10.406,3.202 14.408,4.002c4.269,0.8 7.604,1.201 10.005,1.201l4.402,0c-0.534,0 -2.001,0.267 -4.402,0.801c-2.134,0.534 -4.536,1.334 -7.204,2.401c-2.401,1.067 -4.536,2.401 -6.403,4.002c-1.868,1.601 -2.401,3.469 -1.601,5.603l0,-0Zm321.94,-134.871c1.868,8.004 3.068,14.674 3.602,20.011c0.8,5.336 1.201,10.272 1.201,14.808c0.267,4.536 0.267,9.071 0,13.607c-0.267,4.536 -0.4,10.005 -0.4,16.409c-1.334,-1.067 -2.801,-3.068 -4.402,-6.003c-1.601,-3.202 -3.468,-6.67 -5.603,-10.406c-2.134,-4.002 -4.536,-8.004 -7.204,-12.006c-2.401,-4.002 -5.203,-7.471 -8.404,-10.406c-3.469,-3.202 -6.67,-5.603 -9.605,-7.204c-2.668,-1.601 -6.27,-2.668 -10.806,-3.202c-4.269,-0.8 -9.872,-1.201 -16.809,-1.201c-6.67,-0.267 -15.742,-0.4 -27.214,-0.4c-2.668,0 -5.736,0.4 -9.205,1.201c-3.202,0.534 -6.403,1.601 -9.605,3.202c-2.935,1.601 -5.47,3.869 -7.604,6.804c-2.134,2.668 -3.202,6.137 -3.202,10.406l0.4,71.638c0.534,3.469 1.601,6.137 3.202,8.004c1.868,1.868 3.602,3.335 5.203,4.402c1.868,1.067 3.869,2.001 6.003,2.801c-2.401,1.067 -4.536,2.401 -6.403,4.002c-1.601,1.334 -3.335,3.202 -5.203,5.603c-1.601,2.134 -2.668,4.669 -3.202,7.604l-0.4,89.647l14.408,84.845c-1.868,-3.735 -4.536,-7.871 -8.004,-12.407c-3.469,-4.536 -7.337,-9.338 -11.606,-14.407c-4.002,-4.803 -8.404,-9.605 -13.207,-14.408c-4.803,-4.803 -9.605,-9.205 -14.408,-13.207c-4.803,-4.269 -10.539,-8.004 -17.209,-11.206c-6.67,-3.469 -13.207,-6.67 -19.61,-9.605c-6.403,-2.935 -12.273,-5.87 -17.609,-8.805c-5.336,-2.935 -8.938,-6.27 -10.806,-10.005c-1.067,-2.134 -1.734,-3.735 -2.001,-4.802c-0.267,-1.067 -0.534,-2.001 -0.801,-2.801c2.401,3.202 5.203,5.469 8.404,6.804c3.202,1.334 6.27,2.268 9.205,2.802c3.202,0.267 6.003,0.267 8.404,0c2.668,-0.267 4.536,-0.4 5.603,-0.4c7.737,-0.534 13.874,-3.202 18.41,-8.004c4.803,-4.803 8.271,-12.407 10.406,-22.812l-0.4,-52.428c-0.534,-3.202 -1.601,-5.736 -3.202,-7.604c-1.334,-2.134 -2.802,-3.869 -4.402,-5.203c-1.868,-1.334 -4.002,-2.401 -6.403,-3.202l0.4,0c0.534,0 1.067,-0.133 1.601,-0.4c1.334,-0.534 3.335,-1.601 6.003,-3.202c2.668,-1.868 4.669,-5.203 6.003,-10.005l-0.4,-76.44c-0.534,-3.469 -1.734,-6.403 -3.602,-8.805c-1.868,-2.401 -4.136,-4.269 -6.804,-5.603c-2.668,-1.334 -5.47,-2.268 -8.404,-2.801c-2.935,-0.8 -5.47,-1.201 -7.604,-1.201c-10.672,0 -19.61,0.267 -26.814,0.801c-6.937,0.534 -12.94,1.468 -18.01,2.801c-5.069,1.067 -9.472,2.668 -13.207,4.803c-3.735,1.868 -7.471,4.269 -11.206,7.204c-4.002,2.935 -7.204,6.27 -9.605,10.005c-2.401,3.469 -4.402,6.937 -6.003,10.406c-1.601,3.469 -2.935,6.537 -4.002,9.205c-0.8,2.668 -1.868,4.536 -3.202,5.603c0,-6.403 -0.133,-11.873 -0.4,-16.409c-0.267,-4.536 -0.4,-9.071 -0.4,-13.607c0.267,-4.536 0.667,-9.472 1.201,-14.808c0.8,-5.336 2.135,-12.006 4.002,-20.011c1.868,-7.737 4.136,-15.208 6.804,-22.412c2.935,-7.471 5.87,-13.874 8.805,-19.21c3.202,-6.403 6.537,-12.273 10.005,-17.609c-0.534,5.87 0.934,12.407 4.402,19.61c3.469,6.937 9.071,12.673 16.809,17.209c6.937,4.002 12.54,6.937 16.809,8.805c4.536,1.601 8.538,2.668 12.006,3.202c3.735,0.267 7.471,0.267 11.206,0c3.735,-0.534 8.404,-0.801 14.007,-0.801c6.67,0 12.006,-0.8 16.008,-2.401c4.269,-1.868 7.737,-3.869 10.406,-6.003c2.935,-2.401 5.203,-5.203 6.804,-8.404c2.134,3.202 4.803,6.003 8.004,8.404c2.935,2.134 6.67,4.136 11.206,6.003c4.803,1.601 10.672,2.401 17.609,2.401l1.601,0c5.069,0 9.338,0.133 12.807,0.4c3.735,0.267 7.337,0.133 10.806,-0.4c3.735,-0.534 7.737,-1.601 12.006,-3.202c4.269,-1.601 9.605,-4.269 16.009,-8.004c7.737,-4.536 13.207,-10.272 16.409,-17.209c3.469,-7.204 4.936,-13.741 4.402,-19.61c3.469,5.336 6.804,11.206 10.005,17.609c2.935,5.336 5.736,11.74 8.404,19.21c2.935,7.204 5.47,14.674 7.604,22.412l0.001,0.001Zm337.949,107.257c0.8,3.202 2.001,5.87 3.602,8.004c1.868,1.868 3.602,3.335 5.203,4.402c1.868,1.067 3.468,1.734 4.802,2.001c1.334,0.267 2.001,0.4 2.001,0.4c-2.401,0.267 -4.669,0.934 -6.804,2.001c-2.134,0.8 -4.269,2.001 -6.403,3.602c-1.868,1.601 -3.468,3.735 -4.802,6.403c-1.334,7.471 -3.202,15.075 -5.603,22.812c-2.134,7.471 -4.936,14.808 -8.404,22.012c-3.202,7.204 -6.937,14.141 -11.206,20.811c-4.002,6.403 -8.404,12.14 -13.207,17.209c-6.137,7.737 -12.54,15.341 -19.21,22.812c-5.603,6.403 -11.739,13.34 -18.41,20.811c-6.403,7.471 -12.54,14.141 -18.41,20.011c-3.469,3.735 -8.004,7.204 -13.607,10.406c-5.603,3.202 -11.072,6.27 -16.409,9.205c-6.403,3.202 -13.074,6.27 -20.011,9.205c2.401,-2.134 4.136,-3.869 5.203,-5.203c1.334,-1.067 2.401,-2.268 3.202,-3.602c0.8,-1.334 1.334,-2.935 1.601,-4.803c0.267,-1.868 0.667,-4.536 1.201,-8.004c-0.534,-3.469 -2.268,-6.937 -5.203,-10.406c-2.668,-2.935 -6.804,-6.137 -12.407,-9.605c-5.336,-3.469 -13.074,-6.804 -23.212,-10.005c-13.34,-3.469 -25.88,-9.071 -37.62,-16.809c-11.74,-7.737 -22.278,-16.942 -31.617,-27.615c-9.071,-10.939 -16.809,-22.946 -23.212,-36.019c-6.403,-13.34 -10.939,-27.081 -13.607,-41.222c-1.334,-2.935 -3.068,-5.336 -5.203,-7.204c-1.868,-1.868 -3.869,-3.335 -6.003,-4.402c-2.401,-1.067 -4.936,-1.868 -7.604,-2.401c0,0 0.8,-0.133 2.401,-0.4c1.868,-0.534 3.735,-1.468 5.603,-2.802c2.134,-1.601 4.002,-3.735 5.603,-6.403c1.601,-2.668 2.401,-6.403 2.401,-11.206l0,0.801c0,-15.742 3.735,-31.75 11.206,-48.025c7.737,-16.542 18.01,-31.483 30.816,-44.824c13.074,-13.607 28.282,-24.68 45.624,-33.218c17.343,-8.538 35.752,-12.807 55.229,-12.807c19.744,0 38.287,4.402 55.629,13.207c17.343,8.538 32.417,19.744 45.224,33.618c12.807,13.607 22.945,28.949 30.416,46.024c7.471,17.076 11.206,33.885 11.206,50.427l0,0.8Zm-240.127,30.016c2.401,13.34 6.403,25.747 12.006,37.22c5.87,11.206 13.074,21.078 21.611,29.616c8.805,8.271 18.677,14.808 29.616,19.61c10.939,4.536 22.812,6.804 35.619,6.804c12.807,0 24.546,-2.401 35.219,-7.204c10.939,-4.803 20.544,-11.473 28.815,-20.011c8.271,-8.538 15.075,-18.543 20.411,-30.016c5.603,-11.473 9.605,-24.013 12.006,-37.62l1.601,-20.811l0,-0.4c0,-16.009 -2.401,-31.083 -7.204,-45.224c-4.803,-14.141 -11.473,-26.414 -20.011,-36.819c-8.538,-10.672 -18.943,-19.077 -31.217,-25.213c-12.006,-6.137 -25.213,-9.205 -39.621,-9.205c-14.408,0 -27.748,2.935 -40.021,8.805c-12.006,5.87 -22.545,13.874 -31.617,24.013c-8.805,10.139 -15.875,22.145 -21.211,36.019c-5.069,13.607 -7.737,28.282 -8.004,44.023l0,-0.801l2.001,27.215Zm114.861,-16.009l-20.011,20.411l-20.011,-20.411l20.011,-20.811l20.011,20.811Zm444.405,130.469c3.735,7.737 6.27,15.208 7.604,22.412c1.601,7.471 2.535,14.141 2.801,20.011c0.267,6.937 -0.267,13.34 -1.601,19.21c-6.137,-15.742 -14.274,-28.148 -24.413,-37.22c-10.139,-9.071 -20.277,-16.008 -30.416,-20.811c-11.74,-5.603 -24.013,-9.472 -36.819,-11.606c4.803,-1.334 8.404,-2.935 10.806,-4.802c2.668,-1.868 4.402,-3.735 5.203,-5.603c1.067,-1.868 1.467,-3.468 1.201,-4.802l0,-3.202c-3.202,-17.609 -6.67,-32.551 -10.406,-44.824c-3.735,-12.54 -7.204,-22.679 -10.406,-30.416c-3.735,-9.071 -7.471,-16.542 -11.206,-22.412c-3.735,-6.403 -7.337,-12.54 -10.806,-18.41c-2.935,-5.069 -6.137,-10.005 -9.605,-14.808c-3.469,-4.803 -6.67,-8.404 -9.605,-10.806c-2.935,-2.134 -5.603,-4.669 -8.004,-7.604c-2.401,-2.935 -4.402,-5.736 -6.003,-8.404c-1.868,-2.935 -3.602,-6.137 -5.203,-9.605c3.469,4.269 7.337,7.471 11.606,9.605c4.269,1.868 8.271,3.068 12.006,3.602c4.002,0.534 7.604,0.801 10.806,0.801c3.202,-0.267 5.47,-0.4 6.804,-0.4c2.401,0.267 4.803,0 7.204,-0.801c2.134,-0.534 4.136,-1.468 6.003,-2.802c2.134,-1.334 3.869,-3.335 5.203,-6.003c1.067,-1.868 2.001,-4.536 2.801,-8.004c1.067,-3.469 1.467,-7.471 1.201,-12.006c-0.267,-4.803 -1.601,-10.005 -4.002,-15.608c-2.401,-5.603 -6.403,-11.606 -12.006,-18.01c-4.803,-5.336 -10.672,-9.338 -17.609,-12.006c-6.67,-2.935 -13.34,-4.669 -20.011,-5.203c-6.67,-0.534 -12.807,-0 -18.41,1.601c-5.603,1.334 -9.739,3.602 -12.407,6.804c-0.534,0.8 -0.934,1.601 -1.201,2.401c-0.8,1.601 -1.201,3.068 -1.201,4.402c0,3.202 0.667,6.804 2.001,10.806c1.601,4.002 3.335,7.737 5.203,11.206c1.868,3.202 3.602,6.003 5.203,8.404c1.868,2.401 3.068,3.602 3.602,3.602c-2.935,2.134 -5.069,4.802 -6.403,8.004c-1.067,2.935 -1.868,5.87 -2.401,8.805c-0.534,2.935 -0.801,5.736 -0.801,8.404c0.267,2.668 0.4,4.802 0.4,6.403l0,51.227c0.267,9.071 0.4,18.276 0.4,27.615c0.267,22.145 0.534,46.958 0.801,74.439l21.211,88.447c-2.134,-3.469 -5.203,-7.737 -9.205,-12.807c-3.735,-5.069 -8.004,-10.272 -12.807,-15.608c-4.803,-5.336 -10.005,-10.539 -15.608,-15.608c-5.336,-5.336 -10.539,-10.005 -15.608,-14.007c-5.603,-4.269 -12.14,-8.004 -19.61,-11.206c-7.471,-3.469 -14.808,-6.67 -22.012,-9.605c-7.204,-2.935 -13.741,-5.87 -19.61,-8.805c-5.603,-2.935 -9.605,-6.403 -12.006,-10.406c-1.067,-1.067 -1.868,-2.668 -2.401,-4.802c-0.267,-1.067 -0.534,-1.868 -0.801,-2.401c2.668,3.202 5.736,5.47 9.205,6.804c3.469,1.334 6.937,2.268 10.406,2.801c3.469,0.267 6.537,0.267 9.205,0c2.935,-0.267 5.069,-0.4 6.403,-0.4c8.538,-0.534 15.475,-3.202 20.811,-8.004c5.603,-5.069 9.605,-12.807 12.006,-23.212l0,-49.226c-0.534,-3.202 -1.601,-5.736 -3.202,-7.604c-1.601,-2.134 -3.469,-3.869 -5.603,-5.203c-2.401,-1.334 -4.936,-2.268 -7.604,-2.802c2.401,-0.534 4.803,-1.468 7.204,-2.801c1.868,-1.334 3.602,-3.068 5.203,-5.203c1.868,-2.401 3.068,-5.603 3.602,-9.605l0,-41.622c0,-3.469 -0.534,-7.737 -1.601,-12.807c-0.8,-5.069 -2.401,-10.272 -4.802,-15.608c-2.134,-5.336 -4.936,-10.539 -8.404,-15.608c-3.469,-5.336 -7.737,-10.005 -12.807,-14.007c-9.338,-12.54 -16.942,-24.013 -22.812,-34.418c-5.87,-10.406 -9.872,-19.877 -12.006,-28.415l0.801,0c9.605,10.406 18.543,17.609 26.814,21.611c8.271,3.735 15.475,6.537 21.611,8.404c8.805,2.935 16.409,5.069 22.812,6.403c6.403,1.334 11.873,2.135 16.409,2.401c5.069,0.534 9.472,0.4 13.207,-0.4c9.338,0 16.275,-2.001 20.811,-6.003c4.803,-4.269 8.138,-9.071 10.005,-14.408c2.134,-6.137 3.068,-13.074 2.801,-20.811l0.801,0c19.477,14.941 36.953,29.749 52.428,44.424c6.67,6.403 13.074,13.074 19.21,20.011c6.403,6.67 12.14,13.474 17.209,20.411c5.069,6.937 9.071,13.874 12.006,20.811c3.202,6.67 4.936,12.94 5.203,18.81c-1.601,-2.134 -3.335,-4.136 -5.203,-6.003c-1.601,-1.334 -3.469,-2.668 -5.603,-4.002c-2.134,-1.334 -4.269,-2.001 -6.403,-2.001c-0.534,0 -1.201,0.133 -2.001,0.4c-0.8,0.267 -1.468,1.201 -2.001,2.801c-4.002,8.271 -8.138,14.674 -12.407,19.21c-4.002,4.536 -8.004,8.004 -12.006,10.406c-4.002,2.134 -7.737,3.469 -11.206,4.002c-3.202,0.267 -6.003,0.4 -8.404,0.4c0,0.267 0.934,1.067 2.801,2.401c1.868,1.067 4.002,2.668 6.403,4.802c2.668,1.868 5.47,4.136 8.404,6.804c2.935,2.668 5.47,5.47 7.604,8.404c2.134,2.935 4.402,5.203 6.804,6.804c2.668,1.334 5.203,2.268 7.604,2.802c2.935,0.8 5.736,1.067 8.404,0.801c-2.401,1.334 -4.269,2.801 -5.603,4.402c-1.334,1.601 -2.401,3.602 -3.202,6.003c-0.8,2.134 -0.667,5.069 0.4,8.805c2.401,6.937 4.803,12.807 7.204,17.609c2.668,4.803 5.336,9.338 8.004,13.607c2.668,4.269 5.336,8.671 8.004,13.207c2.668,4.536 5.336,10.139 8.004,16.809c5.603,13.607 9.472,24.546 11.606,32.817c2.401,8.271 4.402,14.007 6.003,17.209l-0.001,-0Zm209.081,-24.013c13.074,0 24.146,-1.734 33.218,-5.203c9.071,-3.469 16.542,-7.604 22.412,-12.407c5.87,-4.803 10.405,-9.738 13.607,-14.808c3.202,-5.336 5.47,-9.605 6.804,-12.807c1.601,-3.469 2.535,-5.47 2.801,-6.003c0.267,-0.8 0.4,0.934 0.4,5.203c0,6.403 -0.267,12.407 -0.801,18.009c-0.267,5.336 -0.934,10.806 -2.001,16.409c-0.8,5.336 -2.001,11.206 -3.602,17.609c-1.334,6.137 -3.068,13.207 -5.203,21.211c-2.401,9.338 -5.336,17.476 -8.805,24.413c-3.469,6.937 -6.003,11.74 -7.604,14.408l-18.81,20.411c1.868,-6.137 2.401,-11.74 1.601,-16.809c-0.534,-5.069 -2.402,-11.072 -5.603,-18.009l-0.4,-1.601c-1.868,-3.469 -4.536,-6.804 -8.004,-10.005c-3.469,-3.469 -9.205,-6.403 -17.209,-8.805c-8.004,-2.668 -19.077,-4.669 -33.218,-6.003c-13.874,-1.601 -32.15,-2.401 -54.829,-2.401c-4.269,0.267 -8.004,1.601 -11.206,4.002c-2.935,2.134 -5.736,5.336 -8.404,9.605c-2.668,4.002 -4.402,9.872 -5.203,17.609l-4.002,4.402c-8.271,-14.674 -14.541,-22.012 -18.81,-22.012c-20.811,-10.939 -36.686,-20.544 -47.625,-28.815c-10.672,-8.271 -17.076,-16.008 -19.21,-23.212l-1.201,-3.202c10.672,13.074 27.615,19.61 50.827,19.61c16.009,0 26.281,-10.539 30.816,-31.617l0,-59.231c-0.534,-3.202 -1.601,-5.736 -3.202,-7.604c-1.601,-1.868 -3.335,-3.468 -5.203,-4.802c-2.134,-1.334 -4.536,-2.401 -7.204,-3.202c2.668,-0.267 5.069,-1.067 7.204,-2.401c1.868,-1.334 3.602,-3.068 5.203,-5.203c1.601,-2.401 2.668,-5.603 3.202,-9.605l0,-44.023c0,-7.204 -2.001,-14.541 -6.003,-22.012c-4.002,-7.737 -10.806,-15.742 -20.411,-24.013c-18.143,-25.08 -29.215,-45.891 -33.218,-62.433l0.801,0c5.336,5.87 10.272,10.806 14.808,14.808c4.803,4.002 9.338,7.471 13.607,10.406c9.338,6.137 20.544,10.406 33.618,12.807c13.34,2.401 26.414,3.869 39.221,4.402l23.212,0c7.737,0 15.475,-0.4 23.212,-1.201c8.004,-1.067 16.142,-2.801 24.413,-5.203c8.271,-2.401 17.209,-6.003 26.814,-10.806c8.538,-4.536 14.674,-10.272 18.41,-17.209c4.002,-7.204 5.736,-13.741 5.203,-19.61c4.002,5.336 7.737,11.206 11.206,17.609c2.935,5.336 6.003,11.74 9.205,19.21c3.469,7.204 6.27,14.674 8.404,22.412c2.134,7.737 3.602,14.274 4.402,19.61c0.8,5.336 1.201,10.272 1.201,14.808c0.267,4.536 0.267,9.205 0,14.007c-0.267,4.536 -0.4,10.005 -0.4,16.409c-1.868,-1.334 -3.335,-3.468 -4.402,-6.403c-1.067,-2.935 -2.401,-6.137 -4.002,-9.605c-1.334,-3.735 -3.335,-7.471 -6.003,-11.206c-2.668,-3.735 -6.67,-7.07 -12.006,-10.005c-5.069,-3.202 -11.873,-5.736 -20.411,-7.604c-8.538,-2.134 -19.344,-3.202 -32.417,-3.202l-19.61,0c-7.204,-0.267 -14.408,-0.534 -21.611,-0.801c-6.937,-0.267 -13.474,-0.534 -19.61,-0.801c-6.137,-0.267 -11.073,-0.534 -14.808,-0.801c-3.469,0 -6.137,0.8 -8.004,2.401c-1.601,1.601 -2.668,3.469 -3.202,5.603c-0.267,2.134 -0.133,4.269 0.4,6.403c0.8,2.134 1.868,3.735 3.202,4.802c3.735,2.935 6.937,4.536 9.605,4.803c2.935,0.267 4.803,0.534 5.603,0.801c-2.668,2.134 -4.669,4.669 -6.003,7.604c-1.334,2.668 -2.268,5.469 -2.801,8.404c-0.267,2.668 -0.4,5.203 -0.4,7.604c0.267,2.401 0.4,4.269 0.4,5.603l0,20.411c0.267,3.735 0.534,9.738 0.801,18.01c5.069,-4.269 12.54,-7.337 22.412,-9.205c10.139,-1.868 20.678,-2.401 31.617,-1.601c11.206,0.534 22.012,2.535 32.417,6.003c10.406,3.202 18.677,7.871 24.813,14.007c-16.275,-1.601 -31.617,-1.601 -46.024,0c-6.137,0.8 -12.406,2.001 -18.81,3.602c-6.137,1.334 -12.006,3.335 -17.609,6.003c-5.603,2.401 -10.806,5.603 -15.608,9.605c-4.536,3.735 -8.138,8.404 -10.806,14.007c-1.334,3.735 -2.268,7.471 -2.801,11.206c-0.534,3.735 -0.267,8.538 0.801,14.408c2.401,13.874 7.337,23.746 14.808,29.616l0,1.601c-5.069,0.8 -7.604,2.268 -7.604,4.402c0,2.134 -0.133,5.069 -0.4,8.805c0,1.868 2.268,3.335 6.804,4.402c4.803,1.067 10.672,2.001 17.609,2.801c6.937,0.534 14.408,0.934 22.412,1.201l22.812,0l-0,0.001Z" style="fill:#fff;fill-rule:nonzero;"/></g></svg>